<?xml version="1.0" standalone="no"?>
<!DOCTYPE svg PUBLIC "-//W3C//DTD SVG 20010904//EN"
 "http://www.w3.org/TR/2001/REC-SVG-20010904/DTD/svg10.dtd">
<svg version="1.0" xmlns="http://www.w3.org/2000/svg"
 width="3757.000000pt" height="2206.000000pt" viewBox="0 0 3757.000000 2206.000000"
 preserveAspectRatio="xMidYMid meet">
<metadata>
Created by potrace 1.16, written by Peter Selinger 2001-2019
</metadata>
<g transform="translate(0.000000,2206.000000) scale(0.100000,-0.100000)"
fill="#000000" stroke="none">
<path d="M26379 19180 c-435 -509 -694 -819 -712 -854 -15 -29 -29 -69 -32
-87 -5 -32 -5 -32 8 6 8 22 23 58 34 80 17 32 529 637 1302 1538 71 82 97 117
88 117 -2 0 -311 -360 -688 -800z"/>
<path d="M25417 19936 c-328 -143 -674 -470 -1273 -1201 -112 -136 -236 -367
-293 -545 -67 -209 -101 -439 -101 -690 0 -211 13 -364 66 -765 82 -623 71
-805 -59 -960 -153 -183 -4840 -5663 -7818 -9140 -375 -439 -397 -460 -504
-504 -27 -11 -44 -20 -37 -20 25 -2 138 56 177 90 21 19 228 255 458 524 231
270 1309 1530 2397 2800 4136 4832 5372 6281 5395 6326 79 153 80 316 6 880
-57 430 -64 517 -64 754 -1 393 57 663 201 947 79 156 131 231 296 428 555
665 868 950 1178 1076 46 19 76 34 68 34 -8 0 -50 -16 -93 -34z"/>
<path d="M28807 18468 c-14 -13 -322 -372 -685 -799 -363 -427 -678 -790 -699
-808 -21 -17 -60 -43 -88 -56 -55 -27 -55 -33 0 -11 87 37 137 91 782 849 361
425 672 787 690 806 38 38 38 54 0 19z"/>
<path d="M28938 16591 c-90 -185 -248 -415 -462 -676 -139 -169 -383 -452
-456 -529 -243 -254 -591 -434 -997 -516 -221 -44 -403 -59 -888 -75 -242 -8
-474 -19 -515 -24 -165 -23 -284 -62 -357 -118 -35 -26 -799 -911 -809 -936
-4 -11 8 -21 66 -54 l25 -15 -24 19 c-67 50 -95 7 300 468 197 231 385 445
417 476 69 66 143 98 289 129 100 20 218 27 838 50 154 5 336 17 404 25 538
67 926 234 1225 529 86 84 371 414 538 621 116 145 237 313 314 438 56 90 160
295 153 301 -2 2 -30 -49 -61 -113z"/>
<path d="M15755 16329 c-1615 -56 -3909 -477 -6230 -1145 -1218 -351 -2554
-798 -3420 -1146 -858 -344 -1388 -498 -2005 -583 -156 -22 -585 -31 -731 -16
-227 23 -459 82 -648 162 -132 56 -195 92 -423 241 -108 71 -214 136 -235 145
-88 37 -219 10 -234 -50 -19 -71 -40 -376 -61 -852 -18 -400 -18 -2254 0
-2620 30 -637 71 -1031 133 -1270 57 -222 241 -451 500 -622 183 -120 375
-207 869 -395 459 -174 686 -280 895 -415 178 -116 332 -250 447 -390 l59 -73
548 0 c301 0 550 3 554 6 3 3 -10 43 -30 87 -122 284 -199 551 -243 853 -178
1228 333 2455 1333 3198 1329 987 3182 865 4366 -289 552 -537 889 -1211 996
-1987 22 -162 31 -524 16 -699 -32 -374 -128 -758 -270 -1072 -17 -38 -31 -77
-31 -88 0 -19 37 -19 1903 -18 l1902 0 2525 2950 c1389 1623 2527 2954 2528
2960 5 12 -3 12 -388 -6 -691 -31 -1618 -59 -2485 -75 -308 -5 -664 -12 -792
-14 l-231 -5 -76 212 c-42 117 -251 700 -465 1297 l-389 1085 132 6 c209 10
642 10 881 -1 556 -25 999 -80 1465 -181 1287 -279 2353 -645 3153 -1083 99
-54 183 -94 187 -90 45 49 490 579 490 585 0 13 -472 223 -820 364 -1862 754
-3762 1100 -5675 1034z m-290 -729 c30 -93 210 -589 493 -1355 148 -401 303
-822 345 -935 l75 -205 -647 -8 c-798 -10 -3364 -1 -3711 13 -1093 43 -1883
159 -2368 346 -117 45 -272 121 -272 133 0 7 274 179 420 264 663 381 1530
764 2400 1059 918 311 2032 593 2750 698 195 28 484 58 491 51 4 -3 14 -31 24
-61z m2752 -3270 c45 -6 104 -17 130 -23 42 -11 48 -15 45 -37 -9 -85 -163
-144 -442 -171 -271 -26 -1031 15 -1152 63 -44 17 -50 85 -10 107 30 16 210
49 332 60 63 6 133 13 155 15 90 8 865 -3 942 -14z"/>
<path d="M29385 11989 c-316 -29 -662 -112 -955 -229 -672 -268 -1253 -760
-1634 -1382 -95 -155 -266 -501 -254 -514 2 -2 17 27 33 64 439 1025 1357
1773 2444 1991 243 49 400 64 661 65 240 0 363 -9 575 -45 1515 -254 2666
-1509 2796 -3047 17 -201 7 -565 -21 -747 -40 -267 -108 -529 -190 -735 -22
-55 -40 -108 -40 -117 0 -15 95 -16 1263 -9 1536 8 1933 19 2272 62 216 27
316 64 315 117 -1 20 -68 162 -70 144 0 -4 14 -34 30 -67 17 -33 30 -68 30
-80 0 -67 -293 -115 -840 -140 -317 -14 -1548 -30 -2344 -30 -613 0 -648 1
-641 18 311 755 345 1579 98 2347 -275 855 -890 1574 -1693 1979 -391 198
-803 316 -1240 356 -132 12 -463 11 -595 -1z"/>
<path d="M8620 11594 c-682 -61 -1284 -333 -1762 -793 -165 -159 -273 -287
-397 -473 -205 -305 -349 -647 -425 -1007 -91 -429 -75 -933 43 -1352 72 -255
205 -556 337 -764 170 -268 470 -592 711 -770 670 -493 1469 -673 2287 -515
585 113 1167 444 1559 887 396 446 625 939 714 1538 27 187 25 630 -5 824 -66
421 -217 813 -442 1151 -464 693 -1176 1138 -2009 1256 -102 14 -516 26 -611
18z m472 -1039 c777 -103 1388 -675 1556 -1454 25 -117 27 -143 26 -366 0
-211 -3 -253 -22 -345 -79 -366 -229 -657 -471 -912 -369 -389 -865 -594
-1391 -575 -178 7 -296 25 -462 73 -569 163 -1040 616 -1228 1181 -157 474
-123 952 100 1398 106 212 238 383 420 548 268 242 635 409 1000 456 105 14
357 12 472 -4z"/>
<path d="M28825 11338 c-16 -6 -73 -26 -125 -45 -860 -318 -1524 -1039 -1765
-1920 -76 -277 -100 -465 -99 -778 1 -269 17 -420 70 -645 97 -413 295 -818
562 -1150 102 -127 314 -337 437 -436 836 -665 1961 -816 2940 -395 335 145
605 330 881 605 223 224 369 420 512 686 75 142 203 454 201 493 0 7 -17 -35
-38 -93 -196 -546 -532 -1004 -987 -1345 -331 -248 -733 -428 -1136 -509 -224
-44 -300 -51 -583 -51 -309 1 -442 16 -711 85 -1135 289 -1981 1260 -2120
2434 -19 155 -21 476 -5 626 60 551 268 1059 609 1490 99 125 343 367 462 460
145 112 320 224 471 300 151 77 191 94 364 156 66 24 113 43 105 43 -8 0 -28
-5 -45 -11z"/>
<path d="M34016 11295 c-43 -9 -85 -19 -95 -25 -24 -14 0 -12 76 7 106 27 385
24 523 -6 383 -81 802 -301 1190 -625 148 -123 220 -194 202 -199 -12 -3 -10
-5 6 -6 12 0 22 3 22 8 0 15 -146 147 -285 258 -367 293 -739 487 -1091 569
-101 23 -146 28 -294 30 -123 2 -198 -1 -254 -11z"/>
<path d="M29542 10449 c-582 -48 -1109 -377 -1425 -889 -48 -79 -131 -249
-124 -257 2 -2 14 20 27 49 106 253 338 543 575 719 317 235 650 352 1040 366
536 19 1024 -177 1390 -558 534 -555 665 -1379 330 -2074 -178 -370 -469 -663
-845 -852 -68 -35 -120 -63 -114 -63 5 0 59 24 119 54 570 281 947 814 1026
1449 17 142 7 422 -21 561 -164 827 -843 1431 -1680 1496 -140 11 -153 11
-298 -1z"/>
<path d="M26554 7316 c6 -19 -66 -19 -3789 -14 l-3795 5 -962 -1125 c-885
-1033 -1029 -1207 -1028 -1237 1 -5 8 4 17 20 21 42 -8 6 1036 1228 l938 1097
3794 0 c2087 0 3796 4 3799 8 2 4 0 14 -6 22 -8 12 -9 11 -4 -4z"/>
<path d="M13291 5815 c-175 -84 -337 -195 -466 -322 -114 -111 -495 -560 -652
-768 -223 -296 -375 -583 -417 -788 -46 -220 13 -726 153 -1312 52 -218 66
-268 78 -272 5 -2 317 357 693 797 375 441 701 815 724 832 74 54 123 71 227
76 77 3 111 0 175 -17 403 -109 1108 -706 1304 -1105 57 -115 77 -217 62 -307
-7 -38 -23 -92 -37 -119 -15 -29 -314 -387 -711 -851 -377 -441 -682 -805
-677 -810 25 -25 768 -65 1028 -55 412 15 577 54 782 183 256 159 474 369 885
850 208 243 254 300 321 401 51 77 152 270 145 277 -2 2 -31 -51 -66 -118 -73
-143 -150 -248 -367 -504 -412 -485 -628 -698 -876 -862 -273 -182 -465 -218
-1084 -208 -303 5 -755 32 -755 46 0 3 307 364 681 801 759 886 739 859 747
1007 11 212 -127 443 -459 769 -312 305 -634 526 -889 609 -70 23 -103 28
-185 28 -114 1 -172 -17 -252 -76 -29 -21 -319 -354 -728 -835 -379 -445 -683
-794 -687 -788 -12 21 -90 352 -133 571 -75 377 -113 703 -100 865 26 329 212
661 700 1245 405 484 534 600 830 746 66 32 116 59 110 59 -5 0 -52 -21 -104
-45z"/>
</g>
</svg>
